<?xml version="1.0" encoding="UTF-8" standalone="no"?>
<!-- Created with Inkscape (http://www.inkscape.org/) -->

<svg
   width="401.1066"
   height="209.81691"
   viewBox="0 0 106.12612 55.51406"
   version="1.1"
   id="svg8"
   xmlns="http://www.w3.org/2000/svg"
   xmlns:svg="http://www.w3.org/2000/svg"
   xmlns:rdf="http://www.w3.org/1999/02/22-rdf-syntax-ns#"
   xmlns:cc="http://creativecommons.org/ns#"
   xmlns:dc="http://purl.org/dc/elements/1.1/">
  <defs
     id="defs2">
    <clipPath
       clipPathUnits="userSpaceOnUse"
       id="clipPath874">
      <g
         id="use876"
         style="stroke-width:1.5">
        <rect
           style="fill:#0e0421;stroke:#488bd4;stroke-width:0.396874;-inkscape-stroke:none;paint-order:stroke fill markers;stop-color:#000000"
           id="rect1315"
           width="508"
           height="285.75"
           x="0"
           y="11.249975" />
      </g>
    </clipPath>
  </defs>
  <metadata
     id="metadata5">
    <rdf:RDF>
      <cc:Work
         rdf:about="">
        <dc:format>image/svg+xml</dc:format>
        <dc:type
           rdf:resource="http://purl.org/dc/dcmitype/StillImage" />
      </cc:Work>
    </rdf:RDF>
  </metadata>
  <g
     id="layer1"
     transform="translate(-214.02973,-87.907892)">
    <path
       id="path2840"
       d="m 258.90569,97.562183 -0.0386,0.763563 -16.16904,0.371557 6.28476,14.872257 -13.34934,-0.40348 -0.0253,0.74064 c -1.15175,-0.16395 -2.33007,-0.25001 -3.53802,-0.14777 -2.25062,0.19051 -4.34309,0.86486 -5.99944,2.30702 -1.65636,1.4422 -2.65695,3.81803 -2.44876,6.10018 0.0941,1.03109 0.46352,2.01469 0.97587,2.87457 l -2.08807,5.1611 c 4.3281,3.15254 9.99783,4.68261 14.63947,2.75093 l 16.18292,0.48795 0.0567,-1.72319 c 1.69922,0.56892 3.73937,0.5873 5.31849,-0.0476 l 0.0687,1.86671 21.09489,-0.72014 6.49464,0.45115 0.0271,0.52895 11.36199,-0.54283 -0.0779,-1.49276 c 1.82865,0.4981 3.70434,0.75877 5.57122,0.57177 1.97017,-0.19732 3.9406,-0.75666 5.63093,-2.13151 1.69034,-1.37481 2.86026,-3.88074 2.59412,-6.34627 -0.15361,-1.42296 -0.85751,-2.64748 -1.69846,-3.66769 l 1.90111,-5.15204 c -4.31117,-2.76119 -9.91994,-3.68491 -14.50979,-1.50666 l -6.01814,0.28712 -4.76603,-6.41924 6.48075,-9.733529 -23.33857,0.401106 z m 3.31787,3.661057 9.99408,0.47046 5.00608,-0.12907 2.00484,2.94634 1.8396,-3.04467 5.14478,-0.13207 -4.11039,6.17255 4.85829,6.54227 -5.23888,0.13451 -2.31426,-3.22801 -2.09532,3.34141 -5.10742,0.13088 4.45663,-6.58088 -3.86253,-5.25036 -0.11764,2.31848 -6.25158,-0.29433 -0.11101,2.19424 5.8553,0.27623 -0.16164,3.19182 -5.85591,-0.27562 -0.2099,4.13514 -4.36855,-0.20567 0.56876,-11.20157 -4.36977,11.84932 -4.52355,0.10439 -5.32756,-12.61047 4.67375,-0.10795 2.93912,8.28775 2.50724,-8.41259 4.15021,-0.0959 z m -5.61946,14.4163 c 1.82713,0.0461 3.77408,0.79948 5.09051,1.99158 l -0.0162,-0.43425 6.38728,-0.21776 c 3.57963,-0.12192 5.69385,1.45953 5.80042,4.36315 0.068,1.85105 -0.61613,3.25545 -1.94332,4.10017 l 1.98674,2.92343 0.91317,-12.17262 11.14968,0.77563 -0.0453,0.60134 11.26065,-0.53799 0.0302,0.58864 c 0.89383,-0.92829 2.33979,-1.54523 4.18883,-1.73041 2.08132,-0.20848 4.30182,0.17173 5.88062,0.92642 l -1.23222,3.336 c -1.40735,-0.57104 -3.53476,-1.14238 -4.67857,-1.02777 -0.48752,0.0488 -0.79128,0.22506 -0.75031,0.60435 0.17157,1.58945 6.87154,-0.0857 7.36678,4.50187 0.30416,2.81763 -2.13032,4.32149 -5.09294,4.61826 -2.2876,0.2291 -4.91755,-0.256 -6.79982,-1.36371 l 1.27324,-3.30461 c 1.46704,0.94848 3.88767,1.60079 5.21898,1.46742 0.63753,-0.0639 1.02817,-0.30418 0.97951,-0.75572 -0.17742,-1.64363 -6.86662,0.12168 -7.34627,-4.32153 -0.006,-0.0558 -0.01,-0.11015 -0.0134,-0.16525 l -2.61885,0.12486 0.48432,9.39454 -4.36855,0.20929 -0.48372,-9.39455 -3.74732,0.17853 -0.0403,-0.78229 -6.49222,-0.45175 -0.11702,1.55732 6.16711,0.42884 -0.23882,3.18821 -6.16714,-0.42943 -0.11825,1.57539 6.95724,0.48433 -0.23944,3.1882 -10.90481,-0.75935 0.39022,0.57361 -4.93671,0.16765 -1.70387,-3.24914 -1.63875,0.0562 0.12119,3.30339 -4.37097,0.149 -0.13992,-3.81429 c -1.42293,1.50851 -3.56009,2.51442 -5.53445,2.57299 -3.69739,0.10979 -6.5421,-2.122 -7.1032,-5.3963 l -0.0567,1.75697 -6.18038,-0.18578 -0.0519,1.57841 6.97231,0.21052 -0.10378,3.19484 -11.34389,-0.3426 0.0765,-2.34319 c -0.56324,1.87213 -2.63247,2.87321 -5.03565,3.07663 -2.29111,0.19395 -4.91324,-0.33154 -6.7769,-1.46806 l 1.32812,-3.2847 c 1.45112,0.97093 3.8603,1.66052 5.19364,1.54765 0.6385,-0.054 1.03339,-0.2878 0.99217,-0.74005 -0.15014,-1.64611 -6.86794,0.0156 -7.27389,-4.43431 -0.23102,-2.53249 1.83973,-4.31143 5.25759,-4.60077 2.08452,-0.17642 4.29886,0.23742 5.86496,1.0163 l -1.28709,3.31729 c -1.39774,-0.5926 -3.51554,-1.19702 -4.6611,-1.10014 -0.48826,0.0413 -0.79462,0.21299 -0.75994,0.59289 0.14004,1.53521 6.39929,0.12985 7.22081,4.14902 l 0.27444,-8.45184 11.17378,0.33715 -0.0579,1.7847 c 1.14899,-1.91762 3.35422,-3.1703 6.0905,-3.25154 0.126,-0.004 0.25252,-0.005 0.38,-0.001 z m 5.1044,2.36252 -2.26542,2.75696 c -0.82449,-1.01108 -2.03316,-1.64726 -3.05068,-1.61703 -1.58281,0.047 -2.69279,1.29693 -2.63875,2.98494 0.0546,1.70614 1.24292,2.90654 2.82572,2.85951 0.94215,-0.028 2.11164,-0.62592 2.94996,-1.54102 l 2.46627,2.3836 z m -18.42296,2.09471 -0.0513,1.56093 6.03926,0.18275 c 0.0204,-0.54212 0.10463,-1.06261 0.2497,-1.55489 z m 24.89769,0.0765 -2.01631,0.0687 0.11101,3.0308 2.01631,-0.0687 c 0.942,-0.0321 1.4678,-0.6135 1.43185,-1.59348 -0.0347,-0.94369 -0.60083,-1.46941 -1.54283,-1.4373 z"
       style="color:#000000;font-style:normal;font-variant:normal;font-weight:900;font-stretch:normal;font-size:20.6707px;line-height:1.25;font-family:Montserrat;-inkscape-font-specification:'Montserrat, Heavy';font-variant-ligatures:normal;font-variant-position:normal;font-variant-caps:normal;font-variant-numeric:normal;font-variant-alternates:normal;font-feature-settings:normal;text-indent:0;text-align:start;text-decoration:none;text-decoration-line:none;text-decoration-style:solid;text-decoration-color:#000000;letter-spacing:0px;word-spacing:0px;text-transform:none;writing-mode:lr-tb;direction:ltr;text-orientation:mixed;dominant-baseline:auto;baseline-shift:baseline;text-anchor:start;white-space:normal;shape-padding:0;clip-rule:nonzero;display:inline;overflow:visible;visibility:visible;isolation:auto;mix-blend-mode:normal;color-interpolation:sRGB;color-interpolation-filters:linearRGB;solid-color:#000000;solid-opacity:1;vector-effect:none;fill:#ffffff;fill-opacity:1;fill-rule:nonzero;stroke:none;stroke-width:5.99757;stroke-linecap:butt;stroke-linejoin:miter;stroke-miterlimit:4;stroke-dasharray:none;stroke-dashoffset:0;stroke-opacity:1;color-rendering:auto;image-rendering:auto;shape-rendering:auto;text-rendering:auto;enable-background:accumulate" />
    <path
       id="path4225"
       style="font-style:normal;font-variant:normal;font-weight:800;font-stretch:normal;font-size:5.79974px;line-height:1.25;font-family:Montserrat;-inkscape-font-specification:'Montserrat, Ultra-Bold';font-variant-ligatures:normal;font-variant-caps:normal;font-variant-numeric:normal;font-feature-settings:normal;text-align:start;letter-spacing:0px;word-spacing:0px;writing-mode:lr-tb;text-anchor:start;fill:#ffffff;fill-opacity:1;stroke:none;stroke-width:0.494268"
       d="m 231.10456,87.991547 2.27953,5.962486 h 1.83721 l 2.30504,-5.962486 h -1.81171 l -1.3609,4.125264 -1.36091,-4.125264 z" />
    <path
       id="path4227"
       style="font-style:normal;font-variant:normal;font-weight:800;font-stretch:normal;font-size:5.79974px;line-height:1.25;font-family:Montserrat;-inkscape-font-specification:'Montserrat, Ultra-Bold';font-variant-ligatures:normal;font-variant-caps:normal;font-variant-numeric:normal;font-feature-settings:normal;text-align:start;letter-spacing:0px;word-spacing:0px;writing-mode:lr-tb;text-anchor:start;fill:#ffffff;fill-opacity:1;stroke:none;stroke-width:0.494268"
       d="m 237.99456,87.991547 v 5.962486 h 1.76919 v -5.962486 z" />
    <path
       id="path4229"
       style="font-style:normal;font-variant:normal;font-weight:800;font-stretch:normal;font-size:5.79974px;line-height:1.25;font-family:Montserrat;-inkscape-font-specification:'Montserrat, Ultra-Bold';font-variant-ligatures:normal;font-variant-caps:normal;font-variant-numeric:normal;font-feature-settings:normal;text-align:start;letter-spacing:0px;word-spacing:0px;writing-mode:lr-tb;text-anchor:start;fill:#ffffff;fill-opacity:1;stroke:none;stroke-width:0.494268"
       d="m 245.05575,89.964865 0.65494,-1.360897 c -0.64643,-0.416781 -1.58208,-0.688961 -2.49217,-0.688961 -1.4885,0 -2.46665,0.731477 -2.46665,1.879752 0,2.100909 3.11308,1.531018 3.11308,2.432631 0,0.272179 -0.23816,0.399755 -0.61242,0.399755 -0.6124,0 -1.60756,-0.391249 -2.21998,-0.910104 l -0.66344,1.343899 c 0.74851,0.586889 1.85424,0.94413 2.86642,0.94413 1.33539,0 2.45815,-0.603902 2.45815,-1.871247 0,-2.151946 -3.11309,-1.63309 -3.11309,-2.509185 0,-0.221143 0.19564,-0.323216 0.49333,-0.323216 0.50183,0 1.36943,0.314709 1.98183,0.663443 z" />
    <path
       id="path4231"
       style="font-style:normal;font-variant:normal;font-weight:800;font-stretch:normal;font-size:5.79974px;line-height:1.25;font-family:Montserrat;-inkscape-font-specification:'Montserrat, Ultra-Bold';font-variant-ligatures:normal;font-variant-caps:normal;font-variant-numeric:normal;font-feature-settings:normal;text-align:start;letter-spacing:0px;word-spacing:0px;writing-mode:lr-tb;text-anchor:start;fill:#ffffff;fill-opacity:1;stroke:none;stroke-width:0.494268"
       d="m 248.00975,91.436356 v -3.444809 h -1.76919 v 3.444809 c 0,1.582054 1.11425,2.594232 2.82389,2.594232 1.70114,0 2.78136,-1.012178 2.78136,-2.594232 v -3.444809 h -1.76918 v 3.444809 c 0,0.697467 -0.41678,1.11425 -1.00368,1.11425 -0.5954,0 -1.0632,-0.425288 -1.0632,-1.11425 z" />
    <path
       id="path4233"
       style="font-style:normal;font-variant:normal;font-weight:800;font-stretch:normal;font-size:5.79974px;line-height:1.25;font-family:Montserrat;-inkscape-font-specification:'Montserrat, Ultra-Bold';font-variant-ligatures:normal;font-variant-caps:normal;font-variant-numeric:normal;font-feature-settings:normal;text-align:start;letter-spacing:0px;word-spacing:0px;writing-mode:lr-tb;text-anchor:start;fill:#ffffff;fill-opacity:1;stroke:none;stroke-width:0.494268"
       d="m 256.96052,93.954033 h 1.88827 l -2.45816,-5.962486 h -1.82021 l -2.5432,5.962486 h 1.82022 l 0.35724,-0.952635 h 2.4071 z m -2.26252,-2.245498 0.7315,-1.947801 0.71448,1.947801 z" />
    <path
       id="path4235"
       style="font-style:normal;font-variant:normal;font-weight:800;font-stretch:normal;font-size:5.79974px;line-height:1.25;font-family:Montserrat;-inkscape-font-specification:'Montserrat, Ultra-Bold';font-variant-ligatures:normal;font-variant-caps:normal;font-variant-numeric:normal;font-feature-settings:normal;text-align:start;letter-spacing:0px;word-spacing:0px;writing-mode:lr-tb;text-anchor:start;fill:#ffffff;fill-opacity:1;stroke:none;stroke-width:0.494268"
       d="m 259.27539,87.991547 v 5.962486 h 4.26985 v -1.479982 h -2.50067 v -4.482504 z" />
    <path
       id="path4237"
       style="font-style:normal;font-variant:normal;font-weight:800;font-stretch:normal;font-size:5.79974px;line-height:1.25;font-family:Montserrat;-inkscape-font-specification:'Montserrat, Ultra-Bold';font-variant-ligatures:normal;font-variant-caps:normal;font-variant-numeric:normal;font-feature-settings:normal;text-align:start;letter-spacing:0px;word-spacing:0px;writing-mode:lr-tb;text-anchor:start;fill:#ffffff;fill-opacity:1;stroke:none;stroke-width:0.494268"
       d="m 266.71788,87.991547 v 5.962486 h 4.95881 v -1.360911 h -3.18964 v -0.944129 h 2.81539 v -1.360912 h -2.81539 v -0.935623 h 3.10458 v -1.360911 z" />
    <path
       id="path4239"
       style="font-style:normal;font-variant:normal;font-weight:800;font-stretch:normal;font-size:5.79974px;line-height:1.25;font-family:Montserrat;-inkscape-font-specification:'Montserrat, Ultra-Bold';font-variant-ligatures:normal;font-variant-caps:normal;font-variant-numeric:normal;font-feature-settings:normal;text-align:start;letter-spacing:0px;word-spacing:0px;writing-mode:lr-tb;text-anchor:start;fill:#ffffff;fill-opacity:1;stroke:none;stroke-width:0.494268"
       d="m 272.5323,87.991547 v 5.962486 h 1.76919 v -2.049858 h 2.65377 v -1.360912 h -2.65377 v -1.190805 h 2.85791 v -1.360911 z" />
    <path
       id="path4241"
       style="font-style:normal;font-variant:normal;font-weight:800;font-stretch:normal;font-size:5.79974px;line-height:1.25;font-family:Montserrat;-inkscape-font-specification:'Montserrat, Ultra-Bold';font-variant-ligatures:normal;font-variant-caps:normal;font-variant-numeric:normal;font-feature-settings:normal;text-align:start;letter-spacing:0px;word-spacing:0px;writing-mode:lr-tb;text-anchor:start;fill:#ffffff;fill-opacity:1;stroke:none;stroke-width:0.494268"
       d="m 277.79852,87.991547 v 5.962486 h 1.76918 v -2.049858 h 2.65377 v -1.360912 h -2.65377 v -1.190805 h 2.85792 v -1.360911 z" />
    <path
       id="path4243"
       style="font-style:normal;font-variant:normal;font-weight:800;font-stretch:normal;font-size:5.79974px;line-height:1.25;font-family:Montserrat;-inkscape-font-specification:'Montserrat, Ultra-Bold';font-variant-ligatures:normal;font-variant-caps:normal;font-variant-numeric:normal;font-feature-settings:normal;text-align:start;letter-spacing:0px;word-spacing:0px;writing-mode:lr-tb;text-anchor:start;fill:#ffffff;fill-opacity:1;stroke:none;stroke-width:0.494268"
       d="m 283.06474,87.991547 v 5.962486 h 4.95882 v -1.360911 h -3.18964 v -0.944129 h 2.81539 v -1.360912 h -2.81539 v -0.935623 h 3.10457 v -1.360911 z" />
    <path
       id="path4245"
       style="font-style:normal;font-variant:normal;font-weight:800;font-stretch:normal;font-size:5.79974px;line-height:1.25;font-family:Montserrat;-inkscape-font-specification:'Montserrat, Ultra-Bold';font-variant-ligatures:normal;font-variant-caps:normal;font-variant-numeric:normal;font-feature-settings:normal;text-align:start;letter-spacing:0px;word-spacing:0px;writing-mode:lr-tb;text-anchor:start;fill:#ffffff;fill-opacity:1;stroke:none;stroke-width:0.494268"
       d="m 293.19155,90.203035 1.02068,-1.207817 c -0.60391,-0.646432 -1.56504,-1.054693 -2.46664,-1.054693 -1.84574,0 -3.20664,1.284357 -3.20664,3.019506 0,1.760681 1.33539,3.070557 3.1471,3.070557 0.9016,0 1.87975,-0.450807 2.52618,-1.148261 l -1.02068,-1.088732 c -0.40827,0.416783 -0.96114,0.688962 -1.42044,0.688962 -0.80804,0 -1.42046,-0.663443 -1.42046,-1.539538 0,-0.87608 0.61242,-1.531019 1.42046,-1.531019 0.49332,0 1.0462,0.314711 1.42044,0.791035 z" />
    <path
       id="path4247"
       style="font-style:normal;font-variant:normal;font-weight:800;font-stretch:normal;font-size:5.79974px;line-height:1.25;font-family:Montserrat;-inkscape-font-specification:'Montserrat, Ultra-Bold';font-variant-ligatures:normal;font-variant-caps:normal;font-variant-numeric:normal;font-feature-settings:normal;text-align:start;letter-spacing:0px;word-spacing:0px;writing-mode:lr-tb;text-anchor:start;fill:#ffffff;fill-opacity:1;stroke:none;stroke-width:0.494268"
       d="m 294.29264,87.991547 v 1.411948 h 1.72666 v 4.550538 h 1.77768 v -4.550538 h 1.73516 v -1.411948 z" />
    <path
       id="path4249"
       style="font-style:normal;font-variant:normal;font-weight:800;font-stretch:normal;font-size:5.79974px;line-height:1.25;font-family:Montserrat;-inkscape-font-specification:'Montserrat, Ultra-Bold';font-variant-ligatures:normal;font-variant-caps:normal;font-variant-numeric:normal;font-feature-settings:normal;text-align:start;letter-spacing:0px;word-spacing:0px;writing-mode:lr-tb;text-anchor:start;fill:#ffffff;fill-opacity:1;stroke:none;stroke-width:0.494268"
       d="m 304.37959,89.964865 0.65494,-1.360897 c -0.64644,-0.416781 -1.58206,-0.688961 -2.49216,-0.688961 -1.48851,0 -2.46666,0.731477 -2.46666,1.879752 0,2.100909 3.11309,1.531018 3.11309,2.432631 0,0.272179 -0.23817,0.399755 -0.61243,0.399755 -0.6124,0 -1.60756,-0.391249 -2.21998,-0.910104 l -0.66344,1.343899 c 0.74851,0.586889 1.85426,0.94413 2.86643,0.94413 1.33539,0 2.45814,-0.603902 2.45814,-1.871247 0,-2.151946 -3.11308,-1.63309 -3.11308,-2.509185 0,-0.221143 0.19563,-0.323216 0.49332,-0.323216 0.50184,0 1.36943,0.314709 1.98183,0.663443 z" />
    <path
       id="path4252"
       style="font-style:normal;font-variant:normal;font-weight:800;font-stretch:normal;font-size:5.79974px;line-height:1.25;font-family:Montserrat;-inkscape-font-specification:'Montserrat, Ultra-Bold';font-variant-ligatures:normal;font-variant-caps:normal;font-variant-numeric:normal;font-feature-settings:normal;text-align:start;letter-spacing:0px;word-spacing:0px;writing-mode:lr-tb;text-anchor:start;fill:#ffffff;fill-opacity:1;stroke:none;stroke-width:0.494268"
       d="m 249.1389,138.37093 v 4.98699 h 1.47974 v -4.98699 z" />
    <path
       id="path4254"
       style="font-style:normal;font-variant:normal;font-weight:800;font-stretch:normal;font-size:5.79974px;line-height:1.25;font-family:Montserrat;-inkscape-font-specification:'Montserrat, Ultra-Bold';font-variant-ligatures:normal;font-variant-caps:normal;font-variant-numeric:normal;font-feature-settings:normal;text-align:start;letter-spacing:0px;word-spacing:0px;writing-mode:lr-tb;text-anchor:start;fill:#ffffff;fill-opacity:1;stroke:none;stroke-width:0.494268"
       d="m 251.45932,138.37093 v 4.98699 h 1.35879 v -2.77451 l 2.1129,2.77451 h 1.25919 v -4.98699 h -1.35168 v 2.78873 l -2.11289,-2.78873 z" />
    <path
       id="path4256"
       style="font-style:normal;font-variant:normal;font-weight:800;font-stretch:normal;font-size:5.79974px;line-height:1.25;font-family:Montserrat;-inkscape-font-specification:'Montserrat, Ultra-Bold';font-variant-ligatures:normal;font-variant-caps:normal;font-variant-numeric:normal;font-feature-settings:normal;text-align:start;letter-spacing:0px;word-spacing:0px;writing-mode:lr-tb;text-anchor:start;fill:#ffffff;fill-opacity:1;stroke:none;stroke-width:0.494268"
       d="m 262.42918,141.99201 c -0.27034,0.12095 -0.54779,0.19208 -0.75411,0.19208 -0.72563,0 -1.27342,-0.5549 -1.27342,-1.31611 0,-0.74698 0.54067,-1.30899 1.25919,-1.30899 0.43397,0 0.93196,0.21342 1.27344,0.54067 l 0.83946,-1.01733 c -0.52644,-0.46241 -1.34456,-0.75409 -2.10578,-0.75409 -1.60779,0 -2.78162,1.08134 -2.78162,2.53974 0,1.46551 1.13826,2.55397 2.68203,2.55397 0.7114,0 1.59355,-0.27034 2.13423,-0.64028 v -2.00618 h -1.27342 z" />
    <path
       id="path4258"
       style="font-style:normal;font-variant:normal;font-weight:800;font-stretch:normal;font-size:5.79974px;line-height:1.25;font-family:Montserrat;-inkscape-font-specification:'Montserrat, Ultra-Bold';font-variant-ligatures:normal;font-variant-caps:normal;font-variant-numeric:normal;font-feature-settings:normal;text-align:start;letter-spacing:0px;word-spacing:0px;writing-mode:lr-tb;text-anchor:start;fill:#ffffff;fill-opacity:1;stroke:none;stroke-width:0.494268"
       d="m 266.87005,138.32824 c -1.56511,0 -2.7176,1.06711 -2.7176,2.53262 0,1.47263 1.15249,2.56109 2.7176,2.56109 1.5651,0 2.71759,-1.09557 2.71759,-2.56109 0,-1.45839 -1.15249,-2.53262 -2.71759,-2.53262 z m 0.0213,1.23786 c 0.65449,0 1.18094,0.54779 1.18094,1.30188 0,0.75409 -0.52645,1.31611 -1.18094,1.31611 -0.6545,0 -1.22363,-0.56202 -1.22363,-1.31611 0,-0.75409 0.56202,-1.30188 1.22363,-1.30188 z" />
    <path
       id="path4260"
       style="font-style:normal;font-variant:normal;font-weight:800;font-stretch:normal;font-size:5.79974px;line-height:1.25;font-family:Montserrat;-inkscape-font-specification:'Montserrat, Ultra-Bold';font-variant-ligatures:normal;font-variant-caps:normal;font-variant-numeric:normal;font-feature-settings:normal;text-align:start;letter-spacing:0px;word-spacing:0px;writing-mode:lr-tb;text-anchor:start;fill:#ffffff;fill-opacity:1;stroke:none;stroke-width:0.494268"
       d="m 272.3318,138.37093 h -2.18403 v 4.98699 h 2.13423 c 1.64336,0 2.73181,-0.99597 2.73181,-2.49706 0,-1.50108 -1.06711,-2.48993 -2.68201,-2.48993 z m 0.0427,3.82739 h -0.74699 v -2.66068 h 0.67585 c 0.71141,0 1.20229,0.53356 1.20229,1.33745 0,0.79678 -0.45531,1.32323 -1.13115,1.32323 z" />
    <path
       id="path4262"
       style="font-style:normal;font-variant:normal;font-weight:800;font-stretch:normal;font-size:5.79974px;line-height:1.25;font-family:Montserrat;-inkscape-font-specification:'Montserrat, Ultra-Bold';font-variant-ligatures:normal;font-variant-caps:normal;font-variant-numeric:normal;font-feature-settings:normal;text-align:start;letter-spacing:0px;word-spacing:0px;writing-mode:lr-tb;text-anchor:start;fill:#ffffff;fill-opacity:1;stroke:none;stroke-width:0.494268"
       d="m 277.95806,138.32824 c -1.5651,0 -2.71759,1.06711 -2.71759,2.53262 0,1.47263 1.15249,2.56109 2.71759,2.56109 1.5651,0 2.71759,-1.09557 2.71759,-2.56109 0,-1.45839 -1.15249,-2.53262 -2.71759,-2.53262 z m 0.0213,1.23786 c 0.65449,0 1.18095,0.54779 1.18095,1.30188 0,0.75409 -0.52646,1.31611 -1.18095,1.31611 -0.6545,0 -1.22363,-0.56202 -1.22363,-1.31611 0,-0.75409 0.56202,-1.30188 1.22363,-1.30188 z" />
    <path
       id="path4264"
       style="font-style:normal;font-variant:normal;font-weight:800;font-stretch:normal;font-size:5.79974px;line-height:1.25;font-family:Montserrat;-inkscape-font-specification:'Montserrat, Ultra-Bold';font-variant-ligatures:normal;font-variant-caps:normal;font-variant-numeric:normal;font-feature-settings:normal;text-align:start;letter-spacing:0px;word-spacing:0px;writing-mode:lr-tb;text-anchor:start;fill:#ffffff;fill-opacity:1;stroke:none;stroke-width:0.494268"
       d="m 280.6642,138.37093 v 1.18094 h 1.44416 v 3.80605 h 1.48685 v -3.80605 h 1.45129 v -1.18094 z" />
    <path
       id="path2850"
       d="M 214.02973,90.163461 V 141.72372 H 244.89 c 1.09691,0.0152 1.09691,-1.63793 0,-1.62273 H 215.65246 V 91.786188 h 11.62405 c 1.09705,0.01534 1.09705,-1.638071 0,-1.622727 z m 92.87938,0 c -1.09705,-0.01534 -1.09705,1.63807 0,1.622727 h 11.62403 v 48.314802 h -29.23755 c -1.09691,-0.0152 -1.09691,1.63793 0,1.62273 h 30.86027 V 90.163461 Z"
       style="color:#000000;font-style:normal;font-variant:normal;font-weight:normal;font-stretch:normal;font-size:medium;line-height:normal;font-family:sans-serif;font-variant-ligatures:normal;font-variant-position:normal;font-variant-caps:normal;font-variant-numeric:normal;font-variant-alternates:normal;font-feature-settings:normal;text-indent:0;text-align:start;text-decoration:none;text-decoration-line:none;text-decoration-style:solid;text-decoration-color:#000000;letter-spacing:normal;word-spacing:normal;text-transform:none;writing-mode:lr-tb;direction:ltr;text-orientation:mixed;dominant-baseline:auto;baseline-shift:baseline;text-anchor:start;white-space:normal;shape-padding:0;clip-rule:nonzero;display:inline;overflow:visible;visibility:visible;isolation:auto;mix-blend-mode:normal;color-interpolation:sRGB;color-interpolation-filters:linearRGB;solid-color:#000000;solid-opacity:1;vector-effect:none;fill:#ffffff;fill-opacity:1;fill-rule:nonzero;stroke:none;stroke-width:1.32292;stroke-linecap:round;stroke-linejoin:miter;stroke-miterlimit:4;stroke-dasharray:none;stroke-dashoffset:0;stroke-opacity:1;marker:none;paint-order:normal;color-rendering:auto;image-rendering:auto;shape-rendering:auto;text-rendering:auto;enable-background:accumulate" />
  </g>
</svg>
